# xmcd
#
# Track frame offsets:
#	150
#	23025
#	42375
#
# Disc length: 738 seconds
#
# Revision: 5
# Processed by: cddbd v1.5.2PL0 Copyright (c) Steve Scherf et al.
# Submitted via: EasyCDDAExtractor 10.0.6.1
#
DISCID=1c02e003
DTITLE=Various Artist - CDX 5 May 1991
DYEAR=1991
DGENRE=Country
TTITLE0=Reba McEntire - Falling Out Of Love
TTITLE1=Paul Ott and Dan Tyler - I Am The River
TTITLE2=Vince Gill - Liza Jane
EXTD=YEAR: 1996 ID3G: 17
EXTT0=
EXTT1=
EXTT2=
PLAYORDER=
